ply
format ascii 1.0
comment Created by Blender 2.75 (sub 0) - www.blender.org, source file: ''
element vertex 188
property float x
property float y
property float z
property float nx
property float ny
property float nz
property uchar red
property uchar green
property uchar blue
element face 65
property list uchar uint vertex_indices
end_header
-0.422770 0.001548 0.423610 0.000000 -1.000000 0.000000 255 255 255
-0.422770 0.001548 -0.426594 0.000000 -1.000000 0.000000 255 255 255
0.427435 0.001548 -0.426594 0.000000 -1.000000 0.000000 255 255 255
0.427435 0.001548 0.423610 0.000000 -1.000000 0.000000 255 255 255
0.257409 0.380515 0.253584 0.996266 0.086334 0.000000 57 29 0
0.257409 0.380515 -0.256568 0.996266 0.086334 0.000000 57 29 0
0.208142 0.949035 -0.207301 0.996266 0.086334 0.000000 57 29 0
0.208142 0.949035 0.204318 0.996266 0.086334 0.000000 57 29 0
0.427435 0.001548 0.423610 0.912380 0.409345 -0.000000 57 29 0
0.427435 0.001548 -0.426594 0.912380 0.409345 -0.000000 57 29 0
0.257409 0.380515 -0.256568 0.912380 0.409345 -0.000000 57 29 0
0.257409 0.380515 0.253584 0.912380 0.409345 -0.000000 57 29 0
-0.422770 0.001548 -0.426594 -0.912380 0.409345 -0.000000 57 29 0
-0.422770 0.001548 0.423610 -0.912380 0.409345 -0.000000 57 29 0
-0.252744 0.380515 0.253584 -0.912380 0.409345 -0.000000 57 29 0
-0.252744 0.380515 -0.256568 -0.912380 0.409345 -0.000000 57 29 0
0.427435 0.001548 -0.426594 0.000000 0.409345 -0.912380 57 29 0
-0.422770 0.001548 -0.426594 0.000000 0.409345 -0.912380 57 29 0
-0.252744 0.380515 -0.256568 0.000000 0.409345 -0.912380 57 29 0
0.257409 0.380515 -0.256568 0.000000 0.409345 -0.912380 57 29 0
-0.422770 0.001548 0.423610 0.000000 0.409345 0.912380 57 29 0
0.427435 0.001548 0.423610 0.000000 0.409345 0.912380 57 29 0
0.257409 0.380515 0.253584 0.000000 0.409345 0.912380 57 29 0
-0.252744 0.380515 0.253584 0.000000 0.409345 0.912380 57 29 0
0.208142 0.949035 -0.207301 -0.000000 -0.000000 -1.000000 57 29 0
0.003493 1.494002 -0.207301 -0.000000 -0.000000 -1.000000 255 255 255
0.208142 1.494002 -0.207301 -0.000000 -0.000000 -1.000000 255 255 255
-0.203477 0.949035 -0.207301 -0.000000 -0.000000 -1.000000 57 29 0
-0.203477 1.494002 -0.207301 -0.000000 -0.000000 -1.000000 255 255 255
-0.252744 0.380515 -0.256568 -0.996266 0.086334 0.000000 57 29 0
-0.252744 0.380515 0.253584 -0.996266 0.086334 0.000000 57 29 0
-0.203477 0.949035 0.204318 -0.996266 0.086334 0.000000 57 29 0
-0.203477 0.949035 -0.207301 -0.996266 0.086334 0.000000 57 29 0
0.257409 0.380515 -0.256568 0.000000 0.086334 -0.996266 57 29 0
-0.252744 0.380515 -0.256568 0.000000 0.086334 -0.996266 57 29 0
-0.203477 0.949035 -0.207301 0.000000 0.086334 -0.996266 57 29 0
0.208142 0.949035 -0.207301 0.000000 0.086334 -0.996266 57 29 0
-0.252744 0.380515 0.253584 0.000000 0.086334 0.996266 57 29 0
0.257409 0.380515 0.253584 0.000000 0.086334 0.996266 57 29 0
0.208142 0.949035 0.204318 0.000000 0.086334 0.996266 57 29 0
-0.203477 0.949035 0.204318 0.000000 0.086334 0.996266 57 29 0
0.016369 1.494002 0.204318 -0.129274 0.504763 0.853524 0 63 0
-0.038663 0.701341 0.635706 -0.129274 0.504763 0.853524 0 63 0
0.715709 0.814844 0.711884 -0.129274 0.504763 0.853524 0 63 0
0.208142 1.494002 0.204318 -0.129274 0.504763 0.853524 0 63 0
-0.203477 0.949035 0.204318 -0.000000 0.000000 1.000000 57 29 0
0.016369 1.494002 0.204318 -0.000000 0.000000 1.000000 255 255 255
-0.203477 1.494002 0.204318 -0.000000 0.000000 1.000000 255 255 255
0.208142 0.949035 0.204318 -0.000000 0.000000 1.000000 57 29 0
0.208142 1.494002 0.204318 -0.000000 0.000000 1.000000 255 255 255
0.208142 0.949035 0.204318 1.000000 0.000000 0.000000 57 29 0
0.208142 1.494002 -0.027007 1.000000 0.000000 0.000000 255 255 255
0.208142 1.494002 0.204318 1.000000 0.000000 0.000000 255 255 255
0.208142 0.949035 -0.207301 1.000000 0.000000 0.000000 57 29 0
0.208142 1.494002 -0.207301 1.000000 0.000000 0.000000 0 63 0
-0.203477 0.949035 -0.207301 -1.000000 -0.000000 0.000000 57 29 0
-0.203477 1.494002 0.008625 -1.000000 -0.000000 0.000000 255 255 255
-0.203477 1.494002 -0.207301 -1.000000 -0.000000 0.000000 255 255 255
-0.203477 0.949035 0.204318 -1.000000 0.000000 0.000000 57 29 0
-0.203477 1.494002 0.204318 -1.000000 0.000000 0.000000 255 255 255
0.208142 1.494002 0.204318 -0.000000 -0.026792 -0.999641 0 63 0
-0.012517 1.920142 0.192897 -0.000000 -0.026792 -0.999641 255 255 255
0.196721 1.920142 0.192897 -0.000000 -0.026792 -0.999641 255 255 255
-0.203477 1.494002 0.204318 -0.000000 -0.026792 -0.999641 255 255 255
-0.192056 1.920142 0.192897 -0.000000 -0.026792 -0.999641 255 255 255
0.208142 1.494002 0.204318 0.000000 0.000000 0.000000 0 63 0
0.016369 1.494002 0.204318 0.000000 0.000000 0.000000 255 255 255
-0.203477 1.494002 0.204318 0.000000 0.000000 0.000000 255 255 255
0.208142 1.494002 -0.027007 0.852944 0.505480 0.130294 0 63 0
0.642675 0.701341 0.023276 0.852944 0.505480 0.130294 0 63 0
0.715709 0.814844 -0.714868 0.852944 0.505480 0.130294 0 63 0
0.208142 1.494002 -0.207301 0.852944 0.505480 0.130294 0 63 0
-0.203477 1.494002 0.008625 -0.851421 0.510133 -0.121850 0 63 0
-0.635516 0.701341 -0.095358 -0.851421 0.510133 -0.121850 0 63 0
-0.711044 0.814844 0.711884 -0.851421 0.510133 -0.121850 0 63 0
-0.203477 1.494002 0.204318 -0.851421 0.510133 -0.121850 0 63 0
0.003493 1.494002 -0.207301 0.118832 0.511148 -0.851238 0 63 0
0.088718 0.701341 -0.642485 0.118832 0.511148 -0.851238 0 63 0
-0.711044 0.814844 -0.714868 0.118832 0.511148 -0.851238 0 63 0
-0.203477 1.494002 -0.207301 0.118832 0.511148 -0.851238 0 63 0
0.208142 1.494002 -0.207301 -0.999641 -0.026792 0.000000 0 63 0
0.196721 1.920142 0.000225 -0.999641 -0.026792 0.000000 255 255 255
0.196721 1.920142 -0.195880 -0.999641 -0.026792 0.000000 255 255 255
0.208142 1.494002 0.204318 -0.999641 -0.026792 0.000000 0 63 0
0.196721 1.920142 0.192897 -0.999641 -0.026792 0.000000 255 255 255
0.208142 1.494002 -0.207301 0.000000 0.000000 0.000000 0 63 0
0.208142 1.494002 -0.027007 0.000000 0.000000 0.000000 0 63 0
-0.203477 1.494002 0.204318 0.999641 -0.026792 0.000000 255 255 255
-0.192056 1.920142 0.040738 0.999641 -0.026792 0.000000 255 255 255
-0.192056 1.920142 0.192897 0.999641 -0.026792 0.000000 255 255 255
-0.203477 1.494002 -0.207301 0.999641 -0.026792 0.000000 0 63 0
-0.192056 1.920142 -0.195880 0.999641 -0.026792 0.000000 255 255 255
-0.203477 1.494002 0.008625 0.000000 0.000000 0.000000 0 63 0
-0.203477 1.494002 -0.207301 0.000000 0.000000 0.000000 0 63 0
-0.203477 1.494002 -0.207301 0.000000 -0.026792 0.999641 0 63 0
0.004177 1.920142 -0.195880 0.000000 -0.026792 0.999641 255 255 255
-0.192056 1.920142 -0.195880 0.000000 -0.026792 0.999641 255 255 255
0.208142 1.494002 -0.207301 0.000000 -0.026792 0.999641 0 63 0
0.196721 1.920142 -0.195880 0.000000 -0.026792 0.999641 255 255 255
0.003493 1.494002 -0.207301 0.000000 0.000000 0.000000 255 255 255
0.004177 1.920142 -0.195880 -0.122383 0.409744 -0.903954 0 63 0
0.196721 1.920142 -0.195880 -0.122383 0.409744 -0.903954 0 63 0
0.527827 1.346079 -0.526986 -0.122383 0.409744 -0.903954 0 63 0
0.077758 1.239215 -0.488425 -0.122383 0.409744 -0.903954 0 63 0
-0.012517 1.920142 0.192897 0.113010 0.419084 0.900887 0 63 0
-0.192056 1.920142 0.192897 0.113010 0.419084 0.900887 0 63 0
-0.523162 1.346079 0.524002 0.113010 0.419084 0.900887 0 63 0
0.028328 1.239215 0.482012 0.113010 0.419084 0.900887 0 63 0
0.196721 1.920142 0.000225 0.901178 0.419198 -0.110236 0 63 0
0.196721 1.920142 0.192897 0.901178 0.419198 -0.110236 0 63 0
0.527827 1.346079 0.524002 0.901178 0.419198 -0.110236 0 63 0
0.489571 1.239215 -0.002440 0.901178 0.419198 -0.110236 0 63 0
-0.192056 1.920142 0.040738 -0.906823 0.403945 0.120418 0 63 0
-0.192056 1.920142 -0.195880 -0.906823 0.403945 0.120418 0 63 0
-0.523162 1.346079 -0.526986 -0.906823 0.403945 0.120418 0 63 0
-0.480865 1.239215 -0.086605 -0.906823 0.403945 0.120418 0 63 0
0.208142 1.494002 -0.207301 -0.141971 0.492732 -0.858522 0 63 0
0.715709 0.814844 -0.714868 -0.141971 0.492732 -0.858522 0 63 0
0.088718 0.701341 -0.642485 -0.141971 0.492732 -0.858522 0 63 0
0.003493 1.494002 -0.207301 -0.141971 0.492732 -0.858522 0 63 0
-0.203477 1.494002 -0.207301 -0.860164 0.489200 0.144226 0 63 0
-0.711044 0.814844 -0.714868 -0.860164 0.489200 0.144226 0 63 0
-0.635516 0.701341 -0.095358 -0.860164 0.489200 0.144226 0 63 0
-0.203477 1.494002 0.008625 -0.860164 0.489200 0.144226 0 63 0
-0.203477 1.494002 0.204318 0.136260 0.495272 0.857986 0 63 0
-0.711044 0.814844 0.711884 0.136260 0.495272 0.857986 0 63 0
-0.038663 0.701341 0.635706 0.136260 0.495272 0.857986 0 63 0
0.016369 1.494002 0.204318 0.136260 0.495272 0.857986 0 63 0
0.208142 1.494002 0.204318 0.856710 0.499247 -0.129613 0 63 0
0.715709 0.814844 0.711884 0.856710 0.499247 -0.129613 0 63 0
0.642675 0.701341 0.023276 0.856710 0.499247 -0.129613 0 63 0
0.208142 1.494002 -0.027007 0.856710 0.499247 -0.129613 0 63 0
0.196721 1.920142 0.192897 -0.115708 0.412303 0.903669 0 63 0
-0.012517 1.920142 0.192897 -0.115708 0.412303 0.903669 0 63 0
0.028328 1.239215 0.482012 -0.115708 0.412303 0.903669 0 63 0
0.527827 1.346079 0.524002 -0.115708 0.412303 0.903669 0 63 0
0.196721 1.920142 -0.195880 0.901354 0.418890 0.109964 0 63 0
0.196721 1.920142 0.000225 0.901354 0.418890 0.109964 0 63 0
0.489571 1.239215 -0.002440 0.901354 0.418890 0.109964 0 63 0
0.527827 1.346079 -0.526986 0.901354 0.418890 0.109964 0 63 0
-0.192056 1.920142 -0.195880 0.100616 0.426125 -0.899052 0 63 0
0.004177 1.920142 -0.195880 0.100616 0.426125 -0.899052 0 63 0
0.077758 1.239215 -0.488425 0.100616 0.426125 -0.899052 0 63 0
-0.523162 1.346079 -0.526986 0.100616 0.426125 -0.899052 0 63 0
-0.192056 1.920142 0.192897 -0.898138 0.425870 -0.109468 0 63 0
-0.192056 1.920142 0.040738 -0.898138 0.425870 -0.109468 0 63 0
-0.480865 1.239215 -0.086605 -0.898138 0.425870 -0.109468 0 63 0
-0.523162 1.346079 0.524002 -0.898138 0.425870 -0.109468 0 63 0
0.196721 1.920142 -0.195880 0.000000 0.341533 -0.939870 255 255 255
0.004177 1.920142 -0.195880 0.000000 0.341533 -0.939870 255 255 255
-0.192056 1.920142 -0.195880 0.000000 0.341533 -0.939870 255 255 255
0.002333 2.455082 -0.001492 0.000000 0.341533 -0.939870 255 255 255
-0.192056 1.920142 0.192897 0.000000 0.341533 0.939870 255 255 255
-0.012517 1.920142 0.192897 0.000000 0.341533 0.939870 255 255 255
0.196721 1.920142 0.192897 0.000000 0.341533 0.939870 255 255 255
0.002333 2.455082 -0.001492 0.000000 0.341533 0.939870 255 255 255
0.196721 1.920142 0.192897 0.939870 0.341533 -0.000000 255 255 255
0.196721 1.920142 0.000225 0.939870 0.341533 -0.000000 255 255 255
0.196721 1.920142 -0.195880 0.939870 0.341533 -0.000000 255 255 255
0.002333 2.455082 -0.001492 0.939870 0.341533 -0.000000 255 255 255
-0.192056 1.920142 -0.195880 -0.939870 0.341533 0.000000 255 255 255
-0.192056 1.920142 0.040738 -0.939870 0.341533 0.000000 255 255 255
-0.192056 1.920142 0.192897 -0.939870 0.341533 0.000000 255 255 255
0.002333 2.455082 -0.001492 -0.939870 0.341533 0.000000 255 255 255
0.002333 2.455082 -0.001492 0.866369 0.497764 0.040433 0 63 0
0.360176 1.832476 -0.004305 0.866369 0.497764 0.040433 0 63 0
0.403888 1.788784 -0.403047 0.866369 0.497764 0.040433 0 63 0
0.002333 2.455082 -0.001492 -0.867050 0.496316 -0.043516 0 63 0
-0.353107 1.832476 -0.020461 -0.867050 0.496316 -0.043516 0 63 0
-0.399223 1.788784 0.400063 -0.867050 0.496316 -0.043516 0 63 0
0.002333 2.455082 -0.001492 0.040402 0.497779 -0.866362 0 63 0
0.011746 1.832476 -0.358779 0.040402 0.497779 -0.866362 0 63 0
-0.399223 1.788784 -0.403047 0.040402 0.497779 -0.866362 0 63 0
0.002333 2.455082 -0.001492 -0.048514 0.493956 0.868132 0 63 0
0.033496 1.832476 0.354504 -0.048514 0.493956 0.868132 0 63 0
0.403888 1.788784 0.400063 -0.048514 0.493956 0.868132 0 63 0
0.403888 1.788784 0.400063 0.866234 0.498049 -0.039825 0 63 0
0.360176 1.832476 -0.004305 0.866234 0.498049 -0.039825 0 63 0
0.002333 2.455082 -0.001492 0.866234 0.498049 -0.039825 0 63 0
0.403888 1.788784 -0.403047 -0.042504 0.496793 -0.866828 0 63 0
0.011746 1.832476 -0.358779 -0.042504 0.496793 -0.866828 0 63 0
0.002333 2.455082 -0.001492 -0.042504 0.496793 -0.866828 0 63 0
-0.399223 1.788784 -0.403047 -0.868066 0.494102 0.048207 0 63 0
-0.353107 1.832476 -0.020461 -0.868066 0.494102 0.048207 0 63 0
0.002333 2.455082 -0.001492 -0.868066 0.494102 0.048207 0 63 0
-0.399223 1.788784 0.400063 0.040996 0.497500 0.866495 0 63 0
0.033496 1.832476 0.354504 0.040996 0.497500 0.866495 0 63 0
0.002333 2.455082 -0.001492 0.040996 0.497500 0.866495 0 63 0
4 0 1 2 3
4 4 5 6 7
4 8 9 10 11
4 12 13 14 15
4 16 17 18 19
4 20 21 22 23
3 24 25 26
3 27 28 25
3 24 27 25
4 29 30 31 32
4 33 34 35 36
4 37 38 39 40
4 41 42 43 44
3 45 46 47
3 48 49 46
3 45 48 46
3 50 51 52
3 53 54 51
3 50 53 51
3 55 56 57
3 58 59 56
3 55 58 56
3 60 61 62
3 63 64 61
3 65 66 67
3 60 63 61
4 68 69 70 71
4 72 73 74 75
4 76 77 78 79
3 80 81 82
3 83 84 81
3 85 86 65
3 80 83 81
3 87 88 89
3 90 91 88
3 67 92 93
3 87 90 88
3 94 95 96
3 97 98 95
3 93 99 85
3 94 97 95
4 100 101 102 103
4 104 105 106 107
4 108 109 110 111
4 112 113 114 115
4 116 117 118 119
4 120 121 122 123
4 124 125 126 127
4 128 129 130 131
4 132 133 134 135
4 136 137 138 139
4 140 141 142 143
4 144 145 146 147
4 148 149 150 151
4 152 153 154 155
4 156 157 158 159
4 160 161 162 163
3 164 165 166
3 167 168 169
3 170 171 172
3 173 174 175
3 176 177 178
3 179 180 181
3 182 183 184
3 185 186 187
