ply
format ascii 1.0
comment Created by Blender 2.75 (sub 0) - www.blender.org, source file: ''
element vertex 336
property float x
property float y
property float z
property float nx
property float ny
property float nz
property uchar red
property uchar green
property uchar blue
element face 99
property list uchar uint vertex_indices
end_header
-0.176518 0.011397 0.176518 0.000000 -1.000000 0.000000 93 65 47
-0.176518 0.011397 -0.176518 0.000000 -1.000000 0.000000 93 65 47
0.176518 0.011397 -0.176518 0.000000 -1.000000 0.000000 93 65 47
0.176518 0.011397 0.176518 0.000000 -1.000000 0.000000 93 65 47
0.109003 0.262502 0.109003 0.999073 0.043055 0.000000 93 65 47
0.109003 0.262502 -0.109003 0.999073 0.043055 0.000000 93 65 47
0.093400 0.624581 -0.081274 0.999073 0.043055 0.000000 93 65 47
0.093400 0.624581 0.085122 0.999073 0.043055 0.000000 93 65 47
-0.176518 0.011397 0.176518 0.000000 0.259650 0.965703 93 65 47
0.176518 0.011397 0.176518 0.000000 0.259650 0.965703 93 65 47
0.109003 0.262502 0.109003 0.000000 0.259650 0.965703 93 65 47
-0.109003 0.262502 0.109003 0.000000 0.259650 0.965703 93 65 47
0.176518 0.011397 0.176518 0.965703 0.259650 0.000000 93 65 47
0.176518 0.011397 -0.176518 0.965703 0.259650 0.000000 93 65 47
0.109003 0.262502 -0.109003 0.965703 0.259650 0.000000 93 65 47
0.109003 0.262502 0.109003 0.965703 0.259650 0.000000 93 65 47
-0.176518 0.011397 -0.176518 -0.965703 0.259650 0.000000 93 65 47
-0.176518 0.011397 0.176518 -0.965703 0.259650 0.000000 93 65 47
-0.109003 0.262502 0.109003 -0.965703 0.259650 0.000000 93 65 47
-0.109003 0.262502 -0.109003 -0.965703 0.259650 0.000000 93 65 47
0.176518 0.011397 -0.176518 0.000000 0.259650 -0.965703 93 65 47
-0.176518 0.011397 -0.176518 0.000000 0.259650 -0.965703 93 65 47
-0.109003 0.262502 -0.109003 0.000000 0.259650 -0.965703 93 65 47
0.109003 0.262502 -0.109003 0.000000 0.259650 -0.965703 93 65 47
-0.091924 0.617467 -0.091879 -0.504581 -0.863364 0.000000 93 65 47
-0.091924 0.617467 0.092187 -0.504581 -0.863364 0.000000 93 65 47
-0.300530 0.739384 0.096221 -0.504581 -0.863364 0.000000 93 65 47
-0.300530 0.739384 -0.081289 -0.504581 -0.863364 0.000000 93 65 47
-0.109003 0.262502 -0.109003 -0.998844 0.048060 0.000000 93 65 47
-0.109003 0.262502 0.109003 -0.998844 0.048060 0.000000 93 65 47
-0.091924 0.617467 0.092187 -0.998844 0.048060 0.000000 93 65 47
-0.091924 0.617467 -0.091879 -0.998844 0.048060 0.000000 93 65 47
0.109003 0.262502 -0.109003 0.025136 0.062360 -0.997737 93 65 47
-0.109003 0.262502 -0.109003 0.025136 0.062360 -0.997737 93 65 47
-0.091924 0.617467 -0.091879 0.025136 0.062360 -0.997737 93 65 47
0.093400 0.624581 -0.081274 0.025136 0.062360 -0.997737 93 65 47
-0.109003 0.262502 0.109003 0.016488 0.056625 0.998259 93 65 47
0.109003 0.262502 0.109003 0.016488 0.056625 0.998259 93 65 47
0.093400 0.624581 0.085122 0.016488 0.056625 0.998259 93 65 47
-0.091924 0.617467 0.092187 0.016488 0.056625 0.998259 93 65 47
0.137287 0.782455 -0.039232 0.034441 0.641088 -0.766694 93 65 47
-0.039209 0.790805 -0.045697 0.034441 0.641088 -0.766694 93 65 47
0.059226 0.945064 0.093230 0.034441 0.641088 -0.766694 93 65 47
0.182072 0.945064 0.093230 0.034441 0.641088 -0.766694 93 65 47
-0.039209 0.790805 -0.045697 0.013994 0.853965 0.520143 93 65 47
0.137287 0.782455 -0.039232 0.013994 0.853965 0.520143 93 65 47
0.084246 0.859342 -0.161542 0.013994 0.853965 0.520143 93 65 47
-0.008522 0.859342 -0.161542 0.013994 0.853965 0.520143 93 65 47
-0.091924 0.617467 0.092187 0.046608 -0.238018 0.970142 93 65 47
0.093400 0.624581 0.085122 0.046608 -0.238018 0.970142 93 65 47
0.137287 0.782455 0.121654 0.046608 -0.238018 0.970142 93 65 47
-0.039209 0.790805 0.132274 0.046608 -0.238018 0.970142 93 65 47
0.093400 0.624581 0.085122 0.963464 -0.267837 0.000000 93 65 47
0.093400 0.624581 -0.081274 0.963464 -0.267837 0.000000 93 65 47
0.137287 0.782455 -0.039232 0.963464 -0.267837 0.000000 93 65 47
0.137287 0.782455 0.121654 0.963464 -0.267837 0.000000 93 65 47
0.182072 0.945064 0.216077 0.992275 -0.124060 0.000000 93 65 47
0.182072 0.945064 0.093230 0.992275 -0.124060 0.000000 93 65 47
0.198900 1.079660 0.171088 0.992275 -0.124060 0.000000 93 65 47
0.198900 1.079660 0.262368 0.992275 -0.124060 0.000000 93 65 47
-0.039209 0.790805 0.132274 0.016968 -0.495978 0.868169 93 65 47
0.137287 0.782455 0.121654 0.016968 -0.495978 0.868169 93 65 47
0.182072 0.945064 0.216077 0.016968 -0.495978 0.868169 93 65 47
0.059226 0.945064 0.216077 0.016968 -0.495978 0.868169 93 65 47
0.137287 0.782455 0.121654 0.964103 -0.265527 0.000000 93 65 47
0.137287 0.782455 -0.039232 0.964103 -0.265527 0.000000 93 65 47
0.182072 0.945064 0.093230 0.964103 -0.265527 0.000000 93 65 47
0.182072 0.945064 0.216077 0.964103 -0.265527 0.000000 93 65 47
-0.039209 0.790805 -0.045697 -0.842994 0.537924 0.000000 93 65 47
-0.039209 0.790805 0.132274 -0.842994 0.537924 0.000000 93 65 47
0.059226 0.945064 0.216077 -0.842994 0.537924 0.000000 93 65 47
0.059226 0.945064 0.093230 -0.842994 0.537924 0.000000 93 65 47
-0.300530 0.739384 -0.081289 -0.868756 -0.495188 -0.007229 93 65 47
-0.300530 0.739384 0.096221 -0.868756 -0.495188 -0.007229 93 65 47
-0.475871 1.044563 0.085743 -0.868756 -0.495188 -0.007229 93 65 47
-0.468903 1.036772 -0.040409 -0.868756 -0.495188 -0.007229 93 65 47
-0.091924 0.617467 0.092187 -0.120916 -0.079285 0.989491 93 65 47
-0.039209 0.790805 0.132274 -0.120916 -0.079285 0.989491 93 65 47
-0.237460 0.863493 0.094116 -0.120916 -0.079285 0.989491 93 65 47
-0.300530 0.739384 0.096221 -0.120916 -0.079285 0.989491 93 65 47
-0.039209 0.790805 0.132274 0.344238 0.938882 0.000000 93 65 47
-0.039209 0.790805 -0.045697 0.344238 0.938882 0.000000 93 65 47
-0.237460 0.863493 -0.022470 0.344238 0.938882 0.000000 93 65 47
-0.237460 0.863493 0.094116 0.344238 0.938882 0.000000 93 65 47
-0.039209 0.790805 -0.045697 0.068576 0.308252 -0.948830 93 65 47
-0.091924 0.617467 -0.091879 0.068576 0.308252 -0.948830 93 65 47
-0.300530 0.739384 -0.081289 0.068576 0.308252 -0.948830 93 65 47
-0.237460 0.863493 -0.022470 0.068576 0.308252 -0.948830 93 65 47
-0.237460 0.863493 -0.022470 0.269000 0.263382 -0.926428 93 65 47
-0.300530 0.739384 -0.081289 0.269000 0.263382 -0.926428 93 65 47
-0.468903 1.036772 -0.040409 0.269000 0.263382 -0.926428 93 65 47
-0.369824 1.068248 -0.007914 0.269000 0.263382 -0.926428 93 65 47
-0.237460 0.863493 0.094116 0.849023 0.526437 -0.044987 93 65 47
-0.237460 0.863493 -0.022470 0.849023 0.526437 -0.044987 93 65 47
-0.369824 1.068248 -0.007914 0.849023 0.526437 -0.044987 93 65 47
-0.362719 1.074603 0.083973 0.849023 0.526437 -0.044987 93 65 47
-0.300530 0.739384 0.096221 -0.008572 0.034923 0.999353 93 65 47
-0.237460 0.863493 0.094116 -0.008572 0.034923 0.999353 93 65 47
-0.362719 1.074603 0.083973 -0.008572 0.034923 0.999353 93 65 47
-0.475871 1.044563 0.085743 -0.008572 0.034923 0.999353 93 65 47
0.059226 0.945064 0.093230 -0.941021 0.338347 0.000000 93 65 47
0.059226 0.945064 0.216077 -0.941021 0.338347 0.000000 93 65 47
0.107620 1.079660 0.262368 -0.941021 0.338347 0.000000 93 65 47
0.107620 1.079660 0.171088 -0.941021 0.338347 0.000000 93 65 47
0.182072 0.945064 0.093230 0.000000 0.500719 -0.865610 93 65 47
0.059226 0.945064 0.093230 0.000000 0.500719 -0.865610 93 65 47
0.107620 1.079660 0.171088 0.000000 0.500719 -0.865610 93 65 47
0.198900 1.079660 0.171088 0.000000 0.500719 -0.865610 93 65 47
0.059226 0.945064 0.216077 0.000000 -0.325231 0.945635 93 65 47
0.182072 0.945064 0.216077 0.000000 -0.325231 0.945635 93 65 47
0.198900 1.079660 0.262368 0.000000 -0.325231 0.945635 93 65 47
0.107620 1.079660 0.262368 0.000000 -0.325231 0.945635 93 65 47
0.084246 0.859342 -0.161542 0.996030 0.023475 -0.085866 93 65 47
0.082539 0.760587 -0.208345 0.996030 0.023475 -0.085866 93 65 47
0.071972 0.938302 -0.282328 0.996030 0.023475 -0.085866 93 65 47
0.073367 1.018957 -0.244103 0.996030 0.023475 -0.085866 93 65 47
0.093400 0.624581 -0.081274 0.038753 -0.658704 -0.751404 93 65 47
-0.091924 0.617467 -0.091879 0.038753 -0.658704 -0.751404 93 65 47
-0.058708 0.760587 -0.208345 0.038753 -0.658704 -0.751404 93 65 47
0.082539 0.760587 -0.208345 0.038753 -0.658704 -0.751404 93 65 47
0.137287 0.782455 -0.039232 0.951797 -0.065356 -0.299684 93 65 47
0.093400 0.624581 -0.081274 0.951797 -0.065356 -0.299684 93 65 47
0.082539 0.760587 -0.208345 0.951797 -0.065356 -0.299684 93 65 47
0.084246 0.859342 -0.161542 0.951797 -0.065356 -0.299684 93 65 47
-0.091924 0.617467 -0.091879 -0.939697 0.338363 0.049795 93 65 47
-0.039209 0.790805 -0.045697 -0.939697 0.338363 0.049795 93 65 47
-0.008522 0.859342 -0.161542 -0.939697 0.338363 0.049795 93 65 47
-0.058708 0.760587 -0.208345 -0.939697 0.338363 0.049795 93 65 47
-0.002398 1.018957 -0.244103 0.000000 0.120977 0.992655 93 65 47
0.073367 1.018957 -0.244103 0.000000 0.120977 0.992655 93 65 47
0.064022 1.145579 -0.259535 0.000000 0.120977 0.992655 93 65 47
0.002862 1.145579 -0.259535 0.000000 0.120977 0.992655 93 65 47
-0.008522 0.859342 -0.161542 0.000000 0.459430 0.888214 93 65 47
0.084246 0.859342 -0.161542 0.000000 0.459430 0.888214 93 65 47
0.073367 1.018957 -0.244103 0.000000 0.459430 0.888214 93 65 47
-0.002398 1.018957 -0.244103 0.000000 0.459430 0.888214 93 65 47
-0.058708 0.760587 -0.208345 -0.875352 0.248200 0.414916 93 65 47
-0.008522 0.859342 -0.161542 -0.875352 0.248200 0.414916 93 65 47
-0.002398 1.018957 -0.244103 -0.875352 0.248200 0.414916 93 65 47
-0.043386 0.938302 -0.282328 -0.875352 0.248200 0.414916 93 65 47
0.082539 0.760587 -0.208345 0.000000 -0.384327 -0.923197 93 65 47
-0.058708 0.760587 -0.208345 0.000000 -0.384327 -0.923197 93 65 47
-0.043386 0.938302 -0.282328 0.000000 -0.384327 -0.923197 93 65 47
0.071972 0.938302 -0.282328 0.000000 -0.384327 -0.923197 93 65 47
-0.043386 0.938302 -0.282328 -0.866342 0.140597 0.479253 93 65 47
-0.002398 1.018957 -0.244103 -0.866342 0.140597 0.479253 93 65 47
0.002862 1.145579 -0.259535 -0.866342 0.140597 0.479253 93 65 47
-0.030224 1.106565 -0.320106 -0.866342 0.140597 0.479253 93 65 47
0.071972 0.938302 -0.282328 0.000000 -0.219062 -0.975711 93 65 47
-0.043386 0.938302 -0.282328 0.000000 -0.219062 -0.975711 93 65 47
-0.030224 1.106565 -0.320106 0.000000 -0.219062 -0.975711 93 65 47
0.062896 1.106565 -0.320106 0.000000 -0.219062 -0.975711 93 65 47
0.073367 1.018957 -0.244103 0.995456 0.047273 -0.082654 93 65 47
0.071972 0.938302 -0.282328 0.995456 0.047273 -0.082654 93 65 47
0.062896 1.106565 -0.320106 0.995456 0.047273 -0.082654 93 65 47
0.064022 1.145579 -0.259535 0.995456 0.047273 -0.082654 93 65 47
-0.364001 0.955579 -0.070558 0.213237 -0.911144 0.352628 0 128 0
-0.043902 1.120498 0.162005 0.213237 -0.911144 0.352628 0 128 0
-0.486265 1.072598 0.305739 0.213237 -0.911144 0.352628 0 128 0
-0.043902 1.120498 0.162005 0.458000 -0.888952 0.000000 0 128 0
-0.364001 0.955579 -0.070558 0.458000 -0.888952 0.000000 0 128 0
-0.043902 1.120498 -0.303121 0.458000 -0.888952 0.000000 0 128 0
-0.364001 0.955579 -0.070558 -0.387357 -0.908520 0.156670 0 128 0
-0.486265 1.072598 0.305739 -0.387357 -0.908520 0.156670 0 128 0
-0.677148 1.089092 -0.070558 -0.387357 -0.908520 0.156670 0 128 0
-0.364001 0.955579 -0.070558 -0.378092 -0.886789 -0.265804 0 128 0
-0.677148 1.089092 -0.070558 -0.378092 -0.886789 -0.265804 0 128 0
-0.486265 1.120498 -0.446856 -0.378092 -0.886789 -0.265804 0 128 0
-0.364001 0.955579 -0.070558 0.141532 -0.888951 -0.435585 0 128 0
-0.486265 1.120498 -0.446856 0.141532 -0.888951 -0.435585 0 128 0
-0.043902 1.120498 -0.303121 0.141532 -0.888951 -0.435585 0 128 0
-0.043902 1.120498 0.162005 0.982246 -0.187597 0.000000 0 128 0
-0.043902 1.120498 -0.303121 0.982246 -0.187597 0.000000 0 128 0
0.031666 1.516167 -0.070558 0.982246 -0.187597 0.000000 0 128 0
-0.486265 1.072598 0.305739 0.321434 -0.177199 0.930205 0 128 0
-0.043902 1.120498 0.162005 0.321434 -0.177199 0.930205 0 128 0
-0.241736 1.516167 0.305739 0.321434 -0.177199 0.930205 0 128 0
-0.677148 1.089092 -0.070558 -0.888838 -0.103714 0.446331 0 128 0
-0.486265 1.072598 0.305739 -0.888838 -0.103714 0.446331 0 128 0
-0.610200 1.516167 0.162005 -0.888838 -0.103714 0.446331 0 128 0
-0.486265 1.120498 -0.446856 -0.874515 -0.162024 -0.457134 0 128 0
-0.677148 1.089092 -0.070558 -0.874515 -0.162024 -0.457134 0 128 0
-0.684099 1.516167 -0.208629 -0.874515 -0.162024 -0.457134 0 128 0
-0.043902 1.120498 -0.303121 0.303535 -0.187589 -0.934172 0 128 0
-0.486265 1.120498 -0.446856 0.303535 -0.187589 -0.934172 0 128 0
-0.241736 1.516167 -0.446856 0.303535 -0.187589 -0.934172 0 128 0
-0.043902 1.120498 0.162005 0.794649 0.187587 0.577359 0 128 0
0.031666 1.516167 -0.070558 0.794649 0.187587 0.577359 0 128 0
-0.241736 1.516167 0.305739 0.794649 0.187587 0.577359 0 128 0
-0.486265 1.072598 0.305739 -0.356339 0.196441 0.913473 0 128 0
-0.241736 1.516167 0.305739 -0.356339 0.196441 0.913473 0 128 0
-0.610200 1.516167 0.162005 -0.356339 0.196441 0.913473 0 128 0
-0.677148 1.089092 -0.070558 -0.979603 0.047201 0.195321 0 128 0
-0.610200 1.516167 0.162005 -0.979603 0.047201 0.195321 0 128 0
-0.684099 1.516167 -0.208629 -0.979603 0.047201 0.195321 0 128 0
-0.486265 1.120498 -0.446856 -0.455014 0.281205 -0.844917 0 128 0
-0.684099 1.516167 -0.208629 -0.455014 0.281205 -0.844917 0 128 0
-0.241736 1.516167 -0.446856 -0.455014 0.281205 -0.844917 0 128 0
-0.043902 1.120498 -0.303121 0.794649 0.187587 -0.577359 0 128 0
-0.241736 1.516167 -0.446856 0.794649 0.187587 -0.577359 0 128 0
0.031666 1.516167 -0.070558 0.794649 0.187587 -0.577359 0 128 0
-0.241736 1.516167 0.305739 0.559692 0.722067 0.406649 0 128 0
0.031666 1.516167 -0.070558 0.559692 0.722067 0.406649 0 128 0
-0.283813 1.760702 -0.070558 0.559692 0.722067 0.406649 0 128 0
-0.610200 1.516167 0.162005 -0.214153 0.807935 0.548980 0 128 0
-0.241736 1.516167 0.305739 -0.214153 0.807935 0.548980 0 128 0
-0.283813 1.760702 -0.070558 -0.214153 0.807935 0.548980 0 128 0
-0.684099 1.516167 -0.208629 -0.545271 0.831180 0.108720 0 128 0
-0.610200 1.516167 0.162005 -0.545271 0.831180 0.108720 0 128 0
-0.283813 1.760702 -0.070558 -0.545271 0.831180 0.108720 0 128 0
-0.241736 1.516167 -0.446856 -0.292862 0.786445 -0.543816 0 128 0
-0.684099 1.516167 -0.208629 -0.292862 0.786445 -0.543816 0 128 0
-0.283813 1.760702 -0.070558 -0.292862 0.786445 -0.543816 0 128 0
0.031666 1.516167 -0.070558 0.559692 0.722067 -0.406649 0 128 0
-0.241736 1.516167 -0.446856 0.559692 0.722067 -0.406649 0 128 0
-0.283813 1.760702 -0.070558 0.559692 0.722067 -0.406649 0 128 0
0.154906 1.034882 0.190033 0.141431 -0.889121 0.435272 0 128 0
0.475005 1.199651 0.422596 0.141431 -0.889121 0.435272 0 128 0
0.032642 1.199651 0.566331 0.141431 -0.889121 0.435272 0 128 0
0.475005 1.199651 0.422596 0.457671 -0.889122 0.000000 0 128 0
0.154906 1.034882 0.190033 0.457671 -0.889122 0.000000 0 128 0
0.475005 1.199651 -0.042530 0.457671 -0.889122 0.000000 0 128 0
0.154906 1.034882 0.190033 -0.370261 -0.889122 0.269016 0 128 0
0.032642 1.199651 0.566331 -0.370261 -0.889122 0.269016 0 128 0
-0.240761 1.199651 0.190033 -0.370261 -0.889122 0.269016 0 128 0
0.154906 1.034882 0.190033 -0.370261 -0.889122 -0.269016 0 128 0
-0.240761 1.199651 0.190033 -0.370261 -0.889122 -0.269016 0 128 0
0.032642 1.199651 -0.186265 -0.370261 -0.889122 -0.269016 0 128 0
0.154906 1.034882 0.190033 0.141431 -0.889121 -0.435271 0 128 0
0.032642 1.199651 -0.186265 0.141431 -0.889121 -0.435271 0 128 0
0.475005 1.199651 -0.042530 0.141431 -0.889121 -0.435271 0 128 0
0.475005 1.199651 0.422596 0.982246 -0.187597 0.000000 0 128 0
0.475005 1.199651 -0.042530 0.982246 -0.187597 0.000000 0 128 0
0.550573 1.595320 0.190033 0.982246 -0.187597 0.000000 0 128 0
0.032642 1.199651 0.566331 0.308929 0.024514 0.950769 0 128 0
0.475005 1.199651 0.422596 0.308929 0.024514 0.950769 0 128 0
0.176640 1.554502 0.510392 0.308929 0.024514 0.950769 0 128 0
-0.240761 1.199651 0.190033 -0.808627 0.030796 0.587515 0 128 0
0.032642 1.199651 0.566331 -0.808627 0.030796 0.587515 0 128 0
-0.056722 1.595320 0.422596 -0.808627 0.030796 0.587515 0 128 0
0.032642 1.199651 -0.186265 -0.794649 -0.187587 -0.577359 0 128 0
-0.240761 1.199651 0.190033 -0.794649 -0.187587 -0.577359 0 128 0
-0.165193 1.595320 -0.042530 -0.794649 -0.187587 -0.577359 0 128 0
0.475005 1.199651 -0.042530 0.303536 -0.187589 -0.934171 0 128 0
0.032642 1.199651 -0.186265 0.303536 -0.187589 -0.934171 0 128 0
0.277171 1.595320 -0.186265 0.303536 -0.187589 -0.934171 0 128 0
0.475005 1.199651 0.422596 0.596271 0.319095 0.736641 0 128 0
0.550573 1.595320 0.190033 0.596271 0.319095 0.736641 0 128 0
0.176640 1.554502 0.510392 0.596271 0.319095 0.736641 0 128 0
0.032642 1.199651 0.566331 -0.298436 0.265616 0.916725 0 128 0
0.176640 1.554502 0.510392 -0.298436 0.265616 0.916725 0 128 0
-0.056722 1.595320 0.422596 -0.298436 0.265616 0.916725 0 128 0
-0.240761 1.199651 0.190033 -0.927673 0.304334 0.216341 0 128 0
-0.056722 1.595320 0.422596 -0.927673 0.304334 0.216341 0 128 0
-0.165193 1.595320 -0.042530 -0.927673 0.304334 0.216341 0 128 0
0.032642 1.199651 -0.186265 -0.303536 0.187589 -0.934171 0 128 0
-0.165193 1.595320 -0.042530 -0.303536 0.187589 -0.934171 0 128 0
0.277171 1.595320 -0.186265 -0.303536 0.187589 -0.934171 0 128 0
0.475005 1.199651 -0.042530 0.794649 0.187587 -0.577359 0 128 0
0.277171 1.595320 -0.186265 0.794649 0.187587 -0.577359 0 128 0
0.550573 1.595320 0.190033 0.794649 0.187587 -0.577359 0 128 0
0.176640 1.554502 0.510392 0.133569 0.951500 0.277139 0 128 0
0.550573 1.595320 0.190033 0.133569 0.951500 0.277139 0 128 0
0.154906 1.650863 0.190033 0.133569 0.951500 0.277139 0 128 0
-0.056722 1.595320 0.422596 0.060640 0.956983 0.283736 0 128 0
0.176640 1.554502 0.510392 0.060640 0.956983 0.283736 0 128 0
0.154906 1.650863 0.190033 0.060640 0.956983 0.283736 0 128 0
-0.165193 1.595320 -0.042530 -0.204267 0.977755 0.047637 0 128 0
-0.056722 1.595320 0.422596 -0.204267 0.977755 0.047637 0 128 0
0.154906 1.650863 0.190033 -0.204267 0.977755 0.047637 0 128 0
0.277171 1.595320 -0.186265 -0.052831 0.985277 -0.162596 0 128 0
-0.165193 1.595320 -0.042530 -0.052831 0.985277 -0.162596 0 128 0
0.154906 1.650863 0.190033 -0.052831 0.985277 -0.162596 0 128 0
0.550573 1.595320 0.190033 0.138311 0.985277 -0.100491 0 128 0
0.277171 1.595320 -0.186265 0.138311 0.985277 -0.100491 0 128 0
0.154906 1.650863 0.190033 0.138311 0.985277 -0.100491 0 128 0
0.073059 0.886845 -0.236273 0.187596 -0.794651 0.577354 0 128 0
0.457460 1.180503 0.043007 0.187596 -0.794651 0.577354 0 128 0
-0.073766 1.180503 0.215616 0.187596 -0.794651 0.577354 0 128 0
0.457460 1.180503 0.043007 0.607065 -0.794652 0.000000 0 128 0
0.073059 0.886845 -0.236273 0.607065 -0.794652 0.000000 0 128 0
0.457460 1.180503 -0.515553 0.607065 -0.794652 0.000000 0 128 0
0.073059 0.886845 -0.236273 -0.491122 -0.794652 0.356829 0 128 0
-0.073766 1.180503 0.215616 -0.491122 -0.794652 0.356829 0 128 0
-0.402089 1.180503 -0.236273 -0.491122 -0.794652 0.356829 0 128 0
0.073059 0.886845 -0.236273 -0.491122 -0.794652 -0.356829 0 128 0
-0.402089 1.180503 -0.236273 -0.491122 -0.794652 -0.356829 0 128 0
-0.073766 1.180503 -0.688162 -0.491122 -0.794652 -0.356829 0 128 0
0.073059 0.886845 -0.236273 0.187596 -0.794651 -0.577354 0 128 0
-0.073766 1.180503 -0.688162 0.187596 -0.794651 -0.577354 0 128 0
0.457460 1.180503 -0.515553 0.187596 -0.794651 -0.577354 0 128 0
0.457460 1.180503 0.043007 0.976112 -0.217266 0.000000 0 128 0
0.457460 1.180503 -0.515553 0.976112 -0.217266 0.000000 0 128 0
0.548208 1.588207 -0.178498 0.976112 -0.217266 0.000000 0 128 0
-0.073766 1.180503 0.215616 0.303535 -0.187589 0.934172 0 128 0
0.457460 1.180503 0.043007 0.303535 -0.187589 0.934172 0 128 0
0.219884 1.655654 0.215616 0.303535 -0.187589 0.934172 0 128 0
-0.402089 1.180503 -0.236273 -0.794649 -0.187587 0.577359 0 128 0
-0.073766 1.180503 0.215616 -0.794649 -0.187587 0.577359 0 128 0
-0.311341 1.655654 0.043007 -0.794649 -0.187587 0.577359 0 128 0
-0.073766 1.180503 -0.688162 -0.805753 -0.089653 -0.585427 0 128 0
-0.402089 1.180503 -0.236273 -0.805753 -0.089653 -0.585427 0 128 0
-0.252044 1.655654 -0.515553 -0.805753 -0.089653 -0.585427 0 128 0
0.457460 1.180503 -0.515553 0.308757 0.041329 -0.950243 0 128 0
-0.073766 1.180503 -0.688162 0.308757 0.041329 -0.950243 0 128 0
0.219884 1.655654 -0.572082 0.308757 0.041329 -0.950243 0 128 0
0.457460 1.180503 0.043007 0.771613 0.162390 0.615015 0 128 0
0.548208 1.588207 -0.178498 0.771613 0.162390 0.615015 0 128 0
0.219884 1.655654 0.215616 0.771613 0.162390 0.615015 0 128 0
-0.073766 1.180503 0.215616 -0.303535 0.187589 0.934172 0 128 0
0.219884 1.655654 0.215616 -0.303535 0.187589 0.934172 0 128 0
-0.311341 1.655654 0.043007 -0.303535 0.187589 0.934172 0 128 0
-0.402089 1.180503 -0.236273 -0.964273 0.244333 -0.102367 0 128 0
-0.311341 1.655654 0.043007 -0.964273 0.244333 -0.102367 0 128 0
-0.252044 1.655654 -0.515553 -0.964273 0.244333 -0.102367 0 128 0
-0.073766 1.180503 -0.688162 -0.113402 0.301373 -0.946739 0 128 0
-0.252044 1.655654 -0.515553 -0.113402 0.301373 -0.946739 0 128 0
0.219884 1.655654 -0.572082 -0.113402 0.301373 -0.946739 0 128 0
0.457460 1.180503 -0.515553 0.755673 0.309143 -0.577399 0 128 0
0.219884 1.655654 -0.572082 0.755673 0.309143 -0.577399 0 128 0
0.548208 1.588207 -0.178498 0.755673 0.309143 -0.577399 0 128 0
0.219884 1.655654 0.215616 0.513876 0.807389 0.289922 0 128 0
0.548208 1.588207 -0.178498 0.513876 0.807389 0.289922 0 128 0
0.073059 1.907594 -0.225757 0.513876 0.807389 0.289922 0 128 0
-0.311341 1.655654 0.043007 -0.172523 0.829648 0.530961 0 128 0
0.219884 1.655654 0.215616 -0.172523 0.829648 0.530961 0 128 0
0.073059 1.907594 -0.225757 -0.172523 0.829648 0.530961 0 128 0
-0.252044 1.655654 -0.515553 -0.576729 0.814638 -0.061226 0 128 0
-0.311341 1.655654 0.043007 -0.576729 0.814638 -0.061226 0 128 0
0.073059 1.907594 -0.225757 -0.576729 0.814638 -0.061226 0 128 0
0.219884 1.655654 -0.572082 -0.072670 0.791615 -0.606683 0 128 0
-0.252044 1.655654 -0.515553 -0.072670 0.791615 -0.606683 0 128 0
0.073059 1.907594 -0.225757 -0.072670 0.791615 -0.606683 0 128 0
0.548208 1.588207 -0.178498 0.549441 0.769080 -0.326544 0 128 0
0.219884 1.655654 -0.572082 0.549441 0.769080 -0.326544 0 128 0
0.073059 1.907594 -0.225757 0.549441 0.769080 -0.326544 0 128 0
4 0 1 2 3
4 4 5 6 7
4 8 9 10 11
4 12 13 14 15
4 16 17 18 19
4 20 21 22 23
4 24 25 26 27
4 28 29 30 31
4 32 33 34 35
4 36 37 38 39
4 40 41 42 43
4 44 45 46 47
4 48 49 50 51
4 52 53 54 55
4 56 57 58 59
4 60 61 62 63
4 64 65 66 67
4 68 69 70 71
4 72 73 74 75
4 76 77 78 79
4 80 81 82 83
4 84 85 86 87
4 88 89 90 91
4 92 93 94 95
4 96 97 98 99
4 100 101 102 103
4 104 105 106 107
4 108 109 110 111
4 112 113 114 115
4 116 117 118 119
4 120 121 122 123
4 124 125 126 127
4 128 129 130 131
4 132 133 134 135
4 136 137 138 139
4 140 141 142 143
4 144 145 146 147
4 148 149 150 151
4 152 153 154 155
3 156 157 158
3 159 160 161
3 162 163 164
3 165 166 167
3 168 169 170
3 171 172 173
3 174 175 176
3 177 178 179
3 180 181 182
3 183 184 185
3 186 187 188
3 189 190 191
3 192 193 194
3 195 196 197
3 198 199 200
3 201 202 203
3 204 205 206
3 207 208 209
3 210 211 212
3 213 214 215
3 216 217 218
3 219 220 221
3 222 223 224
3 225 226 227
3 228 229 230
3 231 232 233
3 234 235 236
3 237 238 239
3 240 241 242
3 243 244 245
3 246 247 248
3 249 250 251
3 252 253 254
3 255 256 257
3 258 259 260
3 261 262 263
3 264 265 266
3 267 268 269
3 270 271 272
3 273 274 275
3 276 277 278
3 279 280 281
3 282 283 284
3 285 286 287
3 288 289 290
3 291 292 293
3 294 295 296
3 297 298 299
3 300 301 302
3 303 304 305
3 306 307 308
3 309 310 311
3 312 313 314
3 315 316 317
3 318 319 320
3 321 322 323
3 324 325 326
3 327 328 329
3 330 331 332
3 333 334 335
